<svg xmlns="http://www.w3.org/2000/svg" viewBox="0 0 960 500" role="img" aria-labelledby="title desc">
  <title id="title">Connect Stripe in Margintra</title><desc id="desc">Sanitized illustration of the Margintra Stripe connection form with a restricted key field.</desc>
  <rect width="960" height="500" fill="#f5f7fb"/><rect width="190" height="500" fill="#151b2b"/><rect x="28" y="30" width="34" height="34" rx="8" fill="#4f46e5"/><text x="45" y="52" fill="#fff" font-family="Arial" font-size="15" font-weight="700" text-anchor="middle">M</text><text x="76" y="53" fill="#fff" font-family="Arial" font-size="18" font-weight="700">Margintra</text>
  <g font-family="Arial" font-size="14" fill="#98a2b3"><text x="32" y="132">Overview</text><text x="32" y="174">Customers</text><rect x="20" y="196" width="150" height="42" rx="8" fill="#312e81"/><text x="32" y="222" fill="#fff" font-weight="700">Integrations</text><text x="32" y="264">Settings</text></g>
  <text x="238" y="70" fill="#172033" font-family="Arial" font-size="28" font-weight="700">Integrations</text><text x="238" y="98" fill="#596579" font-family="Arial" font-size="15">Connect billing revenue and usage ingestion.</text>
  <rect x="238" y="132" width="674" height="320" rx="14" fill="#fff" stroke="#e3e7ef"/><rect x="270" y="164" width="42" height="42" rx="9" fill="#635bff"/><text x="291" y="191" fill="#fff" font-family="Arial" font-size="21" font-weight="700" text-anchor="middle">S</text><text x="328" y="181" fill="#172033" font-family="Arial" font-size="20" font-weight="700">Connect Stripe revenue</text><text x="328" y="204" fill="#596579" font-family="Arial" font-size="13">Use a restricted server-side credential.</text>
  <text x="270" y="253" fill="#344054" font-family="Arial" font-size="13" font-weight="700">Stripe restricted key</text><rect x="270" y="266" width="610" height="48" rx="8" fill="#fff" stroke="#4f46e5" stroke-width="2"/><text x="287" y="296" fill="#7c8799" font-family="monospace" font-size="14">rk_live_••••••••••••••••</text>
  <text x="270" y="343" fill="#344054" font-family="Arial" font-size="13" font-weight="700">Webhook signing secret</text><rect x="270" y="356" width="610" height="48" rx="8" fill="#fff" stroke="#e3e7ef"/><text x="287" y="386" fill="#98a2b3" font-family="monospace" font-size="14">Optional during initial setup</text>
  <rect x="270" y="418" width="126" height="38" rx="8" fill="#4f46e5"/><text x="333" y="442" fill="#fff" font-family="Arial" font-size="13" font-weight="700" text-anchor="middle">Connect Stripe</text>
</svg>
